<?xml version="1.0" standalone="no"?>
<!DOCTYPE svg PUBLIC "-//W3C//DTD SVG 20010904//EN"
 "http://www.w3.org/TR/2001/REC-SVG-20010904/DTD/svg10.dtd">
<svg version="1.0" xmlns="http://www.w3.org/2000/svg"
 width="5597.000000pt" height="5598.000000pt" viewBox="0 0 5597.000000 5598.000000"
 preserveAspectRatio="xMidYMid meet">

<g transform="translate(0.000000,5598.000000) scale(0.100000,-0.100000)"
fill="#000000" stroke="none">
<path d="M23920 50884 c-239 -2 -1870 -8 -3625 -14 -3430 -11 -3955 -18 -4775
-60 -1539 -80 -2717 -285 -3803 -664 -1641 -573 -3096 -1583 -4215 -2928 -318
-382 -639 -841 -889 -1268 -734 -1257 -1155 -2596 -1342 -4270 -85 -756 -123
-1500 -141 -2785 -6 -407 -17 -1055 -25 -1440 -32 -1477 -11 -17499 25 -20325
13 -977 29 -1445 71 -2050 91 -1327 285 -2367 623 -3350 741 -2150 2232 -3973
4196 -5130 1159 -683 2421 -1104 3925 -1309 863 -118 1747 -170 3255 -191 933
-13 20687 -13 21620 0 2099 30 3208 130 4375 395 1816 412 3448 1316 4736
2622 1272 1289 2128 2858 2544 4658 259 1125 364 2263 395 4305 13 878 13
20933 0 21810 -22 1475 -77 2367 -195 3215 -206 1470 -624 2717 -1293 3855
-827 1408 -2004 2584 -3411 3410 -1340 785 -2831 1226 -4681 1385 -1042 89
-1637 102 -5095 116 -2543 9 -11373 19 -12275 13z m16272 -3024 c753 -51 1395
-178 2093 -413 2216 -749 4030 -2475 4892 -4657 323 -818 505 -1658 553 -2555
12 -215 14 -19183 3 -21687 l-6 -1318 -42 0 c-40 0 -43 -2 -49 -31 -3 -17 -6
-73 -6 -124 0 -50 -3 -140 -7 -198 l-6 -107 -44 0 -43 0 0 -66 c0 -36 -4 -84
-10 -107 -5 -23 -17 -121 -25 -217 -9 -96 -25 -238 -36 -315 -32 -222 -27
-205 -58 -205 -27 0 -28 -1 -45 -117 -22 -147 -63 -363 -107 -555 -31 -136
-36 -148 -56 -148 -24 0 -22 4 -58 -140 -22 -86 -97 -348 -141 -487 -28 -91
-38 -112 -55 -115 -18 -2 -32 -34 -84 -178 -34 -96 -91 -247 -126 -335 -59
-145 -67 -160 -91 -163 -23 -3 -33 -20 -92 -150 -36 -81 -104 -221 -149 -312
-77 -153 -86 -165 -113 -168 -26 -3 -37 -18 -117 -160 -48 -86 -126 -219 -173
-295 -76 -122 -88 -137 -113 -137 -24 0 -39 -17 -120 -136 -52 -75 -140 -199
-197 -275 l-104 -139 -44 0 c-44 0 -44 0 -136 -113 -50 -61 -151 -178 -223
-259 l-132 -148 -80 0 c-67 0 -82 -3 -92 -18 -23 -38 -364 -352 -381 -352 -9
0 -51 -29 -91 -65 l-74 -65 -16316 0 -16316 1 -75 64 c-41 36 -84 65 -95 65
-20 0 -100 68 -308 263 l-114 107 -89 1 -89 1 -142 151 c-78 84 -183 200 -235
260 l-93 107 -57 0 -57 0 -96 117 c-53 65 -149 188 -213 275 l-117 156 -52 1
-52 1 -129 178 c-70 97 -166 230 -212 295 l-84 117 -101 0 -102 0 -25 58
c-193 435 -268 624 -372 937 -227 688 -347 1298 -413 2097 -16 189 -17 1046
-21 12058 -2 8599 0 11917 8 12080 70 1412 499 2761 1255 3940 842 1313 2061
2368 3470 3003 883 398 1802 627 2790 696 183 13 24249 13 24437 1z"/>
<path d="M19253 37720 c-366 -39 -678 -336 -733 -697 -7 -47 -10 -2014 -8
-6313 l3 -6245 28 -85 c101 -303 331 -511 633 -575 103 -22 1916 -22 2019 0
137 29 257 88 374 184 108 88 224 275 268 431 17 63 18 296 18 6335 0 6055 -1
6272 -18 6335 -101 356 -372 590 -732 630 -105 11 -1741 11 -1852 0z"/>
<path d="M34850 37719 c-346 -41 -618 -280 -717 -629 -17 -63 -18 -280 -18
-6335 0 -6047 1 -6272 18 -6335 89 -316 336 -551 643 -615 107 -22 1914 -22
2018 0 302 64 532 272 633 575 l28 85 3 6245 c2 4299 -1 6266 -8 6313 -23 153
-101 312 -209 429 -111 120 -251 204 -416 250 -80 22 -82 22 -990 24 -500 1
-944 -2 -985 -7z"/>
</g>
</svg>
